<svg xmlns="http://www.w3.org/2000/svg" width="896" height="720"><rect width="100%" height="100%" fill="#18191d"/><g transform="translate(44 12)"><path d="M9 3 L15 3 L15 6 L17 7 L20 6 L23 11 L20 13 L20 15 L22 17 L19 22 L16 20 L14 21 L14 24 L8 24 L8 21 L6 20 L3 21 L0 16 L3 14 L3 12 L1 10 L4 5 L7 7 L9 6 Z" fill-rule="evenodd" fill="none" stroke="#dedede" stroke-width="1.65" stroke-linecap="round" stroke-linejoin="round"/><circle cx="11.5" cy="13.5" r="4" fill="none" stroke="#b5abfa" stroke-width="1.65" stroke-linecap="round" stroke-linejoin="round"/></g><text x="56" y="58" text-anchor="middle" fill="#989ba9" font-family="Arial" font-size="10">settings</text><g transform="translate(156 12)"><circle cx="10.5" cy="10.5" r="6.5" fill="none" stroke="#dedede" stroke-width="1.65" stroke-linecap="round" stroke-linejoin="round"/><path d="M15.5 15.5 L21 21" fill-rule="evenodd" fill="none" stroke="#dedede" stroke-width="1.65" stroke-linecap="round" stroke-linejoin="round"/></g><text x="168" y="58" text-anchor="middle" fill="#989ba9" font-family="Arial" font-size="10">search</text><g transform="translate(268 12)"><path d="M3 6 L1 2 L6 3 C9 0 16 0 19 4 C22 7 21 12 17 15 L14 17 L13 19 L9 18.5 L9.7 15 C10 13 14 11 15.5 9 C17 6 15 4.5 12.5 4.5 C10.5 4.5 9 6 8.5 8 Z" fill-rule="evenodd" fill="#b5abfa" stroke="none" stroke-width="1.65" stroke-linecap="round" stroke-linejoin="round"/><circle cx="11" cy="22" r="2" fill="#b5abfa" stroke="none" stroke-width="1.65" stroke-linecap="round" stroke-linejoin="round"/></g><text x="280" y="58" text-anchor="middle" fill="#989ba9" font-family="Arial" font-size="10">missing-ping</text><g transform="translate(380 12)"><path d="M12 1 C5.92524 1 1 5.92524 1 12 C1 18.07476 5.92524 23 12 23 C18.07476 23 23 18.07476 23 12 C23 5.92524 18.076033 1 12 1 Z M18.282259 15.626779 L12.001273 19.253559 L5.720287 15.626779 L5.720287 8.373221 L12.001273 4.746441 L18.282259 8.373221 L18.282259 15.626779 Z" fill-rule="evenodd" fill="#dedede" stroke="none" stroke-width="1.65" stroke-linecap="round" stroke-linejoin="round"/><path d="M7.62215 9.47182 L7.62215 14.52818 L12 17.056359 L16.379123 14.52818 L16.379123 9.47182 L12 6.944914 Z" fill-rule="evenodd" fill="#dedede" stroke="none" stroke-width="1.65" stroke-linecap="round" stroke-linejoin="round"/></g><text x="392" y="58" text-anchor="middle" fill="#989ba9" font-family="Arial" font-size="10">reflex</text><g transform="translate(492 12)"><circle cx="12" cy="12" r="9" fill="none" stroke="#dedede" stroke-width="1.65" stroke-linecap="round" stroke-linejoin="round"/><circle cx="12" cy="12" r="3" fill="none" stroke="#b5abfa" stroke-width="1.65" stroke-linecap="round" stroke-linejoin="round"/><path d="M12 3 L12 7 M17 7 L15.5 8.5 M21 12 L17 12 M17 17 L15.5 15.5 M12 21 L12 17 M7 17 L8.5 15.5 M3 12 L7 12 M7 7 L8.5 8.5" fill-rule="evenodd" fill="none" stroke="#dedede" stroke-width="1.65" stroke-linecap="round" stroke-linejoin="round"/></g><text x="504" y="58" text-anchor="middle" fill="#989ba9" font-family="Arial" font-size="10">wheel</text><g transform="translate(604 12)"><path d="M3 8 L12 3 L21 8 L12 13 Z" fill-rule="evenodd" fill="none" stroke="#dedede" stroke-width="1.65" stroke-linecap="round" stroke-linejoin="round"/><path d="M3 12 L12 17 L21 12 M3 16 L12 21 L21 16" fill-rule="evenodd" fill="none" stroke="#b5abfa" stroke-width="1.65" stroke-linecap="round" stroke-linejoin="round"/></g><text x="616" y="58" text-anchor="middle" fill="#989ba9" font-family="Arial" font-size="10">layers</text><g transform="translate(716 12)"><path d="M3 7 L11 3 L19 7 L11 11 Z M3 11 L11 15 L14 13.5 M3 15 L11 19 L13 18" fill-rule="evenodd" fill="none" stroke="#dedede" stroke-width="1.65" stroke-linecap="round" stroke-linejoin="round"/><path d="M18 13 L18 21 M14 17 L22 17" fill-rule="evenodd" fill="none" stroke="#b5abfa" stroke-width="1.65" stroke-linecap="round" stroke-linejoin="round"/></g><text x="728" y="58" text-anchor="middle" fill="#989ba9" font-family="Arial" font-size="10">layer-new</text><g transform="translate(828 12)"><path d="M7 16 L3 16 L3 3 L16 3 L16 7" fill-rule="evenodd" fill="none" stroke="#dedede" stroke-width="1.65" stroke-linecap="round" stroke-linejoin="round"/><rect x="8" y="8" width="13" height="13" fill="none" stroke="#b5abfa" stroke-width="1.65" stroke-linecap="round" stroke-linejoin="round"/></g><text x="840" y="58" text-anchor="middle" fill="#989ba9" font-family="Arial" font-size="10">copy</text><g transform="translate(44 92)"><path d="M3 6 L10 6 L12 9 L21 9 L21 20 L3 20 Z" fill-rule="evenodd" fill="none" stroke="#dedede" stroke-width="1.65" stroke-linecap="round" stroke-linejoin="round"/><path d="M3 6 L3 4 L10 4 L12 6 L20 6" fill-rule="evenodd" fill="none" stroke="#b5abfa" stroke-width="1.65" stroke-linecap="round" stroke-linejoin="round"/></g><text x="56" y="138" text-anchor="middle" fill="#989ba9" font-family="Arial" font-size="10">folder</text><g transform="translate(156 92)"><path d="M12 2 L21 7 L21 17 L12 22 L3 17 L3 7 Z M3 7 L12 12 L21 7 M12 12 L12 22" fill-rule="evenodd" fill="none" stroke="#dedede" stroke-width="1.65" stroke-linecap="round" stroke-linejoin="round"/><path d="M8 4 L17 9 L17 13" fill-rule="evenodd" fill="none" stroke="#b5abfa" stroke-width="1.65" stroke-linecap="round" stroke-linejoin="round"/></g><text x="168" y="138" text-anchor="middle" fill="#989ba9" font-family="Arial" font-size="10">cube</text><g transform="translate(268 92)"><rect x="3" y="3" width="6" height="6" fill="none" stroke="#dedede" stroke-width="1.65" stroke-linecap="round" stroke-linejoin="round"/><rect x="13" y="3" width="6" height="6" fill="none" stroke="#dedede" stroke-width="1.65" stroke-linecap="round" stroke-linejoin="round"/><rect x="3" y="13" width="6" height="6" fill="none" stroke="#dedede" stroke-width="1.65" stroke-linecap="round" stroke-linejoin="round"/><rect x="13" y="13" width="3" height="3" fill="#b5abfa" stroke="none" stroke-width="1.65" stroke-linecap="round" stroke-linejoin="round"/><rect x="18" y="13" width="3" height="3" fill="#b5abfa" stroke="none" stroke-width="1.65" stroke-linecap="round" stroke-linejoin="round"/><rect x="13" y="18" width="3" height="3" fill="#b5abfa" stroke="none" stroke-width="1.65" stroke-linecap="round" stroke-linejoin="round"/><rect x="18" y="18" width="3" height="3" fill="#b5abfa" stroke="none" stroke-width="1.65" stroke-linecap="round" stroke-linejoin="round"/></g><text x="280" y="138" text-anchor="middle" fill="#989ba9" font-family="Arial" font-size="10">raster</text><g transform="translate(380 92)"><path d="M3 5 L12 2 L21 5 L12 8 Z M3 19 L12 22 L21 19" fill-rule="evenodd" fill="none" stroke="#dedede" stroke-width="1.65" stroke-linecap="round" stroke-linejoin="round"/><path d="M12 10 L12 17 M8.5 13.5 L12 17 L15.5 13.5" fill-rule="evenodd" fill="none" stroke="#b5abfa" stroke-width="1.65" stroke-linecap="round" stroke-linejoin="round"/></g><text x="392" y="138" text-anchor="middle" fill="#989ba9" font-family="Arial" font-size="10">merge</text><g transform="translate(492 92)"><rect x="3" y="4" width="18" height="16" fill="none" stroke="#dedede" stroke-width="1.65" stroke-linecap="round" stroke-linejoin="round"/><circle cx="12" cy="12" r="4" fill="#b5abfa" stroke="none" stroke-width="1.65" stroke-linecap="round" stroke-linejoin="round"/></g><text x="504" y="138" text-anchor="middle" fill="#989ba9" font-family="Arial" font-size="10">mask</text><g transform="translate(604 92)"><path d="M4 3 L4 12 L11 12 M8 9 L11 12 L8 15" fill-rule="evenodd" fill="none" stroke="#b5abfa" stroke-width="1.65" stroke-linecap="round" stroke-linejoin="round"/><rect x="14" y="9" width="7" height="12" fill="none" stroke="#dedede" stroke-width="1.65" stroke-linecap="round" stroke-linejoin="round"/></g><text x="616" y="138" text-anchor="middle" fill="#989ba9" font-family="Arial" font-size="10">clip</text><g transform="translate(716 92)"><path d="M4 13 L4 4 L11 4 M7 1 L11 4 L7 7" fill-rule="evenodd" fill="none" stroke="#b5abfa" stroke-width="1.65" stroke-linecap="round" stroke-linejoin="round"/><rect x="14" y="9" width="7" height="12" fill="none" stroke="#dedede" stroke-width="1.65" stroke-linecap="round" stroke-linejoin="round"/><path d="M3 21 L10 14" fill-rule="evenodd" fill="none" stroke="#dedede" stroke-width="1.65" stroke-linecap="round" stroke-linejoin="round"/></g><text x="728" y="138" text-anchor="middle" fill="#989ba9" font-family="Arial" font-size="10">unclip</text><g transform="translate(828 92)"><path d="M2 12 C6 3 18 3 22 12 C18 21 6 21 2 12 Z" fill-rule="evenodd" fill="none" stroke="#dedede" stroke-width="1.65" stroke-linecap="round" stroke-linejoin="round"/><circle cx="12" cy="12" r="3" fill="none" stroke="#b5abfa" stroke-width="1.65" stroke-linecap="round" stroke-linejoin="round"/></g><text x="840" y="138" text-anchor="middle" fill="#989ba9" font-family="Arial" font-size="10">eye</text><g transform="translate(44 172)"><rect x="5" y="10" width="14" height="11" fill="none" stroke="#dedede" stroke-width="1.65" stroke-linecap="round" stroke-linejoin="round"/><path d="M8 10 L8 7 C8 1.5 16 1.5 16 7 L16 10" fill-rule="evenodd" fill="none" stroke="#dedede" stroke-width="1.65" stroke-linecap="round" stroke-linejoin="round"/><path d="M12 14 L12 17" fill-rule="evenodd" fill="none" stroke="#b5abfa" stroke-width="1.65" stroke-linecap="round" stroke-linejoin="round"/></g><text x="56" y="218" text-anchor="middle" fill="#989ba9" font-family="Arial" font-size="10">lock</text><g transform="translate(156 172)"><path d="M3 8 L3 3 L8 3 M16 3 L21 3 L21 8 M21 16 L21 21 L16 21 M8 21 L3 21 L3 16 M11 3 L13 3 M21 11 L21 13 M11 21 L13 21 M3 11 L3 13" fill-rule="evenodd" fill="none" stroke="#dedede" stroke-width="1.65" stroke-linecap="round" stroke-linejoin="round"/></g><text x="168" y="218" text-anchor="middle" fill="#989ba9" font-family="Arial" font-size="10">selection</text><g transform="translate(268 172)"><path d="M3 8 L3 3 L8 3 M16 3 L21 3 L21 8 M21 16 L21 21 L16 21 M8 21 L3 21 L3 16" fill-rule="evenodd" fill="none" stroke="#dedede" stroke-width="1.65" stroke-linecap="round" stroke-linejoin="round"/><rect x="7" y="7" width="10" height="10" fill="none" stroke="#b5abfa" stroke-width="1.65" stroke-linecap="round" stroke-linejoin="round"/></g><text x="280" y="218" text-anchor="middle" fill="#989ba9" font-family="Arial" font-size="10">select-all</text><g transform="translate(380 172)"><path d="M3 8 L3 3 L8 3 M16 3 L21 3 L21 8 M21 16 L21 21 L16 21 M8 21 L3 21 L3 16" fill-rule="evenodd" fill="none" stroke="#dedede" stroke-width="1.65" stroke-linecap="round" stroke-linejoin="round"/><path d="M8 8 L16 16 M8 16 L16 8" fill-rule="evenodd" fill="none" stroke="#b5abfa" stroke-width="1.65" stroke-linecap="round" stroke-linejoin="round"/></g><text x="392" y="218" text-anchor="middle" fill="#989ba9" font-family="Arial" font-size="10">deselect</text><g transform="translate(492 172)"><rect x="3" y="3" width="18" height="18" fill="none" stroke="#dedede" stroke-width="1.65" stroke-linecap="round" stroke-linejoin="round"/><path d="M3 3 L21 21 L3 21 Z" fill-rule="evenodd" fill="#b5abfa" stroke="none" stroke-width="1.65" stroke-linecap="round" stroke-linejoin="round"/><rect x="8" y="8" width="8" height="8" fill="none" stroke="#dedede" stroke-width="1.65" stroke-linecap="round" stroke-linejoin="round"/></g><text x="504" y="218" text-anchor="middle" fill="#989ba9" font-family="Arial" font-size="10">inverse</text><g transform="translate(604 172)"><circle cx="11" cy="7" r="3" fill="none" stroke="#dedede" stroke-width="1.65" stroke-linecap="round" stroke-linejoin="round"/><path d="M5 20 L5 18 C5 11 17 11 17 18 L17 20 M3 5 L3 2 L6 2 M18 2 L21 2 L21 5 M3 19 L3 22 L6 22 M18 22 L21 22 L21 19" fill-rule="evenodd" fill="none" stroke="#dedede" stroke-width="1.65" stroke-linecap="round" stroke-linejoin="round"/><path d="M19 9 L19 13 M17 11 L21 11" fill-rule="evenodd" fill="none" stroke="#b5abfa" stroke-width="1.65" stroke-linecap="round" stroke-linejoin="round"/></g><text x="616" y="218" text-anchor="middle" fill="#989ba9" font-family="Arial" font-size="10">subject</text><g transform="translate(716 172)"><path d="M4 8 L4 4 L8 4 M16 4 L20 4 L20 8 M20 16 L20 20 L16 20 M8 20 L4 20 L4 16" fill-rule="evenodd" fill="none" stroke="#dedede" stroke-width="1.65" stroke-linecap="round" stroke-linejoin="round"/><path d="M8 9 L8 13 L12 13 M8 13 C8 6 18 7 16 14 C15 17 12 18 10 16" fill-rule="evenodd" fill="none" stroke="#b5abfa" stroke-width="1.65" stroke-linecap="round" stroke-linejoin="round"/></g><text x="728" y="218" text-anchor="middle" fill="#989ba9" font-family="Arial" font-size="10">reselect</text><g transform="translate(828 172)"><path d="M3 5 L3 11 L9 11" fill-rule="evenodd" fill="none" stroke="#b5abfa" stroke-width="1.65" stroke-linecap="round" stroke-linejoin="round"/><path d="M3 11 C6 0 22 5 20 15 C19 21 10 23 6 18" fill-rule="evenodd" fill="none" stroke="#dedede" stroke-width="1.65" stroke-linecap="round" stroke-linejoin="round"/></g><text x="840" y="218" text-anchor="middle" fill="#989ba9" font-family="Arial" font-size="10">undo</text><g transform="translate(44 252)"><path d="M21 5 L21 11 L15 11" fill-rule="evenodd" fill="none" stroke="#b5abfa" stroke-width="1.65" stroke-linecap="round" stroke-linejoin="round"/><path d="M21 11 C18 0 2 5 4 15 C5 21 14 23 18 18" fill-rule="evenodd" fill="none" stroke="#dedede" stroke-width="1.65" stroke-linecap="round" stroke-linejoin="round"/></g><text x="56" y="298" text-anchor="middle" fill="#989ba9" font-family="Arial" font-size="10">redo</text><g transform="translate(156 252)"><path d="M3 3 L8 8 M8 4 L8 8 L4 8 M21 3 L16 8 M16 4 L16 8 L20 8 M3 21 L8 16 M4 16 L8 16 L8 20 M21 21 L16 16 M20 16 L16 16 L16 20" fill-rule="evenodd" fill="none" stroke="#dedede" stroke-width="1.65" stroke-linecap="round" stroke-linejoin="round"/><rect x="10" y="10" width="4" height="4" fill="#b5abfa" stroke="none" stroke-width="1.65" stroke-linecap="round" stroke-linejoin="round"/></g><text x="168" y="298" text-anchor="middle" fill="#989ba9" font-family="Arial" font-size="10">fit</text><g transform="translate(268 252)"><path d="M8 3 L3 3 L3 8 M16 3 L21 3 L21 8 M3 16 L3 21 L8 21 M21 16 L21 21 L16 21" fill-rule="evenodd" fill="none" stroke="#dedede" stroke-width="1.65" stroke-linecap="round" stroke-linejoin="round"/><rect x="9" y="9" width="6" height="6" fill="#b5abfa" stroke="none" stroke-width="1.65" stroke-linecap="round" stroke-linejoin="round"/></g><text x="280" y="298" text-anchor="middle" fill="#989ba9" font-family="Arial" font-size="10">pixels</text><g transform="translate(380 252)"><circle cx="12" cy="12" r="9" fill="none" stroke="#dedede" stroke-width="1.65" stroke-linecap="round" stroke-linejoin="round"/><circle cx="12" cy="12" r="5.5" fill="none" stroke="#b5abfa" stroke-width="1.65" stroke-linecap="round" stroke-linejoin="round"/><circle cx="12" cy="12" r="2" fill="#b5abfa" stroke="none" stroke-width="1.65" stroke-linecap="round" stroke-linejoin="round"/></g><text x="392" y="298" text-anchor="middle" fill="#989ba9" font-family="Arial" font-size="10">blur</text><g transform="translate(492 252)"><path d="M3 6 L13 6 M2 12 L9 12 M3 18 L13 18" fill-rule="evenodd" fill="none" stroke="#dedede" stroke-width="1.65" stroke-linecap="round" stroke-linejoin="round"/><path d="M10 6 L15 6 L21 12 L15 18 L10 18" fill-rule="evenodd" fill="none" stroke="#b5abfa" stroke-width="1.65" stroke-linecap="round" stroke-linejoin="round"/></g><text x="504" y="298" text-anchor="middle" fill="#989ba9" font-family="Arial" font-size="10">motion</text><g transform="translate(604 252)"><rect x="3" y="3" width="18" height="18" fill="none" stroke="#dedede" stroke-width="1.65" stroke-linecap="round" stroke-linejoin="round"/><rect x="6" y="6" width="1.5" height="1.5" fill="#b5abfa" stroke="none" stroke-width="1.65" stroke-linecap="round" stroke-linejoin="round"/><rect x="12" y="5" width="1.5" height="1.5" fill="#b5abfa" stroke="none" stroke-width="1.65" stroke-linecap="round" stroke-linejoin="round"/><rect x="17" y="8" width="1.5" height="1.5" fill="#b5abfa" stroke="none" stroke-width="1.65" stroke-linecap="round" stroke-linejoin="round"/><rect x="8" y="12" width="1.5" height="1.5" fill="#b5abfa" stroke="none" stroke-width="1.65" stroke-linecap="round" stroke-linejoin="round"/><rect x="14" y="13" width="1.5" height="1.5" fill="#b5abfa" stroke="none" stroke-width="1.65" stroke-linecap="round" stroke-linejoin="round"/><rect x="5" y="17" width="1.5" height="1.5" fill="#b5abfa" stroke="none" stroke-width="1.65" stroke-linecap="round" stroke-linejoin="round"/><rect x="11" y="18" width="1.5" height="1.5" fill="#b5abfa" stroke="none" stroke-width="1.65" stroke-linecap="round" stroke-linejoin="round"/><rect x="18" y="18" width="1.5" height="1.5" fill="#b5abfa" stroke="none" stroke-width="1.65" stroke-linecap="round" stroke-linejoin="round"/></g><text x="616" y="298" text-anchor="middle" fill="#989ba9" font-family="Arial" font-size="10">noise</text><g transform="translate(716 252)"><path d="M3 19 L3 5 L21 5 L21 19 Z" fill-rule="evenodd" fill="none" stroke="#dedede" stroke-width="1.65" stroke-linecap="round" stroke-linejoin="round"/><path d="M6 16 L10 8 L14 16 L18 8" fill-rule="evenodd" fill="none" stroke="#b5abfa" stroke-width="1.65" stroke-linecap="round" stroke-linejoin="round"/></g><text x="728" y="298" text-anchor="middle" fill="#989ba9" font-family="Arial" font-size="10">highpass</text><g transform="translate(828 252)"><path d="M5 3 L5 8 M5 12 L5 21 M12 3 L12 13 M12 17 L12 21 M19 3 L19 6 M19 10 L19 21" fill-rule="evenodd" fill="none" stroke="#dedede" stroke-width="1.65" stroke-linecap="round" stroke-linejoin="round"/><circle cx="5" cy="10" r="2" fill="none" stroke="#b5abfa" stroke-width="1.65" stroke-linecap="round" stroke-linejoin="round"/><circle cx="12" cy="15" r="2" fill="none" stroke="#b5abfa" stroke-width="1.65" stroke-linecap="round" stroke-linejoin="round"/><circle cx="19" cy="8" r="2" fill="none" stroke="#b5abfa" stroke-width="1.65" stroke-linecap="round" stroke-linejoin="round"/></g><text x="840" y="298" text-anchor="middle" fill="#989ba9" font-family="Arial" font-size="10">sliders</text><g transform="translate(44 332)"><path d="M3 3 L3 21 L21 21" fill-rule="evenodd" fill="none" stroke="#dedede" stroke-width="1.65" stroke-linecap="round" stroke-linejoin="round"/><path d="M6 18 C15 18 9 6 19 6" fill-rule="evenodd" fill="none" stroke="#b5abfa" stroke-width="1.65" stroke-linecap="round" stroke-linejoin="round"/><rect x="10" y="11" width="3" height="3" fill="#b5abfa" stroke="none" stroke-width="1.65" stroke-linecap="round" stroke-linejoin="round"/></g><text x="56" y="378" text-anchor="middle" fill="#989ba9" font-family="Arial" font-size="10">curve</text><g transform="translate(156 332)"><path d="M3 20 L21 20 M5 17 L5 13 M9 17 L9 7 M13 17 L13 3 M17 17 L17 10 M21 17 L21 14" fill-rule="evenodd" fill="none" stroke="#b5abfa" stroke-width="1.65" stroke-linecap="round" stroke-linejoin="round"/><path d="M3 3 L3 17" fill-rule="evenodd" fill="none" stroke="#dedede" stroke-width="1.65" stroke-linecap="round" stroke-linejoin="round"/></g><text x="168" y="378" text-anchor="middle" fill="#989ba9" font-family="Arial" font-size="10">levels</text><g transform="translate(268 332)"><circle cx="12" cy="12" r="9" fill="none" stroke="#dedede" stroke-width="1.65" stroke-linecap="round" stroke-linejoin="round"/><path d="M12 3 L12 12 L20 16 M12 12 L4 16" fill-rule="evenodd" fill="none" stroke="#b5abfa" stroke-width="1.65" stroke-linecap="round" stroke-linejoin="round"/><circle cx="12" cy="12" r="2" fill="#b5abfa" stroke="none" stroke-width="1.65" stroke-linecap="round" stroke-linejoin="round"/></g><text x="280" y="378" text-anchor="middle" fill="#989ba9" font-family="Arial" font-size="10">hue</text><g transform="translate(380 332)"><circle cx="12" cy="12" r="9" fill="none" stroke="#dedede" stroke-width="1.65" stroke-linecap="round" stroke-linejoin="round"/><path d="M12 3 C24 3 24 21 12 21 Z" fill-rule="evenodd" fill="#b5abfa" stroke="none" stroke-width="1.65" stroke-linecap="round" stroke-linejoin="round"/></g><text x="392" y="378" text-anchor="middle" fill="#989ba9" font-family="Arial" font-size="10">contrast</text><g transform="translate(492 332)"><path d="M12 2 L12 22 M2 12 L22 12 M8 6 L12 2 L16 6 M8 18 L12 22 L16 18 M6 8 L2 12 L6 16 M18 8 L22 12 L18 16" fill-rule="evenodd" fill="none" stroke="#dedede" stroke-width="1.65" stroke-linecap="round" stroke-linejoin="round"/></g><text x="504" y="378" text-anchor="middle" fill="#989ba9" font-family="Arial" font-size="10">move</text><g transform="translate(604 332)"><path d="M9 13 L18 3 L21 6 L11 15 Z" fill-rule="evenodd" fill="none" stroke="#dedede" stroke-width="1.65" stroke-linecap="round" stroke-linejoin="round"/><path d="M9 13 C3 12 6 19 2 20 C8 22 12 19 11 15" fill-rule="evenodd" fill="none" stroke="#b5abfa" stroke-width="1.65" stroke-linecap="round" stroke-linejoin="round"/></g><text x="616" y="378" text-anchor="middle" fill="#989ba9" font-family="Arial" font-size="10">brush</text><g transform="translate(716 332)"><path d="M3 14 L13 3 L21 11 L12 21 L9 21 Z M8 9 L16 17" fill-rule="evenodd" fill="none" stroke="#dedede" stroke-width="1.65" stroke-linecap="round" stroke-linejoin="round"/><path d="M12 21 L22 21" fill-rule="evenodd" fill="none" stroke="#b5abfa" stroke-width="1.65" stroke-linecap="round" stroke-linejoin="round"/></g><text x="728" y="378" text-anchor="middle" fill="#989ba9" font-family="Arial" font-size="10">eraser</text><g transform="translate(828 332)"><path d="M3 21 L6 8 L15 3 L21 9 L16 18 Z M15 3 L21 9" fill-rule="evenodd" fill="none" stroke="#dedede" stroke-width="1.65" stroke-linecap="round" stroke-linejoin="round"/><path d="M3 21 L10.5 13.5" fill-rule="evenodd" fill="none" stroke="#b5abfa" stroke-width="1.65" stroke-linecap="round" stroke-linejoin="round"/><circle cx="12" cy="12" r="2" fill="none" stroke="#b5abfa" stroke-width="1.65" stroke-linecap="round" stroke-linejoin="round"/></g><text x="840" y="378" text-anchor="middle" fill="#989ba9" font-family="Arial" font-size="10">pen</text><g transform="translate(44 412)"><path d="M3 7 L3 3 L21 3 L21 7 M12 3 L12 21" fill-rule="evenodd" fill="none" stroke="#dedede" stroke-width="1.65" stroke-linecap="round" stroke-linejoin="round"/><path d="M8 21 L16 21" fill-rule="evenodd" fill="none" stroke="#b5abfa" stroke-width="1.65" stroke-linecap="round" stroke-linejoin="round"/></g><text x="56" y="458" text-anchor="middle" fill="#989ba9" font-family="Arial" font-size="10">type</text><g transform="translate(156 412)"><path d="M7 2 L7 17 L22 17 M2 7 L17 7 L17 22" fill-rule="evenodd" fill="none" stroke="#dedede" stroke-width="1.65" stroke-linecap="round" stroke-linejoin="round"/><path d="M11 13 L21 3" fill-rule="evenodd" fill="none" stroke="#b5abfa" stroke-width="1.65" stroke-linecap="round" stroke-linejoin="round"/></g><text x="168" y="458" text-anchor="middle" fill="#989ba9" font-family="Arial" font-size="10">crop</text><g transform="translate(268 412)"><path d="M14 3 L21 10 M16 5 L19 2 L22 5 L19 8 M6 19 L2 22 L3 17 L14 6 L18 10 Z" fill-rule="evenodd" fill="none" stroke="#dedede" stroke-width="1.65" stroke-linecap="round" stroke-linejoin="round"/><path d="M6 16 L8 18" fill-rule="evenodd" fill="none" stroke="#b5abfa" stroke-width="1.65" stroke-linecap="round" stroke-linejoin="round"/></g><text x="280" y="458" text-anchor="middle" fill="#989ba9" font-family="Arial" font-size="10">dropper</text><g transform="translate(380 412)"><path d="M7 12 L7 6 C7 3 10 3 10 6 L10 11 L10 4 C10 1 13 1 13 4 L13 11 L13 5 C13 2 16 2 16 5 L16 12 L16 8 C16 5 19 5 19 8 L19 16 C19 24 9 24 6 18 L3 13 C1 9 5 9 7 12 Z" fill-rule="evenodd" fill="none" stroke="#dedede" stroke-width="1.65" stroke-linecap="round" stroke-linejoin="round"/></g><text x="392" y="458" text-anchor="middle" fill="#989ba9" font-family="Arial" font-size="10">hand</text><g transform="translate(492 412)"><path d="M7 16 C-2 13 3 3 12 3 C23 3 25 15 15 17 C10 18 6 15 8 13 C11 10 16 15 12 19 L8 22" fill-rule="evenodd" fill="none" stroke="#b5abfa" stroke-width="1.65" stroke-linecap="round" stroke-linejoin="round"/></g><text x="504" y="458" text-anchor="middle" fill="#989ba9" font-family="Arial" font-size="10">lasso</text><g transform="translate(604 412)"><rect x="3" y="4" width="18" height="16" fill="none" stroke="#dedede" stroke-width="1.65" stroke-linecap="round" stroke-linejoin="round"/><path d="M7 5 L7 19 M10 5 L10 19 M12 5 L12 19 M14 5 L14 19 M16 5 L16 19 M18 5 L18 19" fill-rule="evenodd" fill="none" stroke="#b5abfa" stroke-width="1.65" stroke-linecap="round" stroke-linejoin="round"/></g><text x="616" y="458" text-anchor="middle" fill="#989ba9" font-family="Arial" font-size="10">gradient</text><g transform="translate(716 412)"><path d="M4 21 L20 21 M3 18 L21 18 L19 14 L5 14 Z" fill-rule="evenodd" fill="none" stroke="#dedede" stroke-width="1.65" stroke-linecap="round" stroke-linejoin="round"/><path d="M8 14 L8 10 C8 8 6 8 6 5 C6 0 18 0 18 5 C18 8 16 8 16 10 L16 14" fill-rule="evenodd" fill="none" stroke="#b5abfa" stroke-width="1.65" stroke-linecap="round" stroke-linejoin="round"/></g><text x="728" y="458" text-anchor="middle" fill="#989ba9" font-family="Arial" font-size="10">stamp</text><g transform="translate(828 412)"><path d="M4 13 L13 4 C17 0 24 7 20 11 L11 20 C7 24 0 17 4 13 Z M8 9 L15 16 M9 8 L16 15" fill-rule="evenodd" fill="none" stroke="#dedede" stroke-width="1.65" stroke-linecap="round" stroke-linejoin="round"/><circle cx="10" cy="13" r="0.6" fill="#b5abfa" stroke="none" stroke-width="1.65" stroke-linecap="round" stroke-linejoin="round"/><circle cx="13" cy="10" r="0.6" fill="#b5abfa" stroke="none" stroke-width="1.65" stroke-linecap="round" stroke-linejoin="round"/></g><text x="840" y="458" text-anchor="middle" fill="#989ba9" font-family="Arial" font-size="10">healing</text><g transform="translate(44 492)"><path d="M3 8 L3 3 L8 3 M16 3 L21 3 L21 8 M21 16 L21 21 L16 21 M8 21 L3 21 L3 16" fill-rule="evenodd" fill="none" stroke="#dedede" stroke-width="1.65" stroke-linecap="round" stroke-linejoin="round"/><path d="M7 16 L16 7 M14 4 L14 2 M19 8 L22 8 M18 4 L20 2" fill-rule="evenodd" fill="none" stroke="#b5abfa" stroke-width="1.65" stroke-linecap="round" stroke-linejoin="round"/></g><text x="56" y="538" text-anchor="middle" fill="#989ba9" font-family="Arial" font-size="10">quick-select</text><g transform="translate(156 492)"><rect x="3" y="3" width="15" height="15" fill="none" stroke="#dedede" stroke-width="1.65" stroke-linecap="round" stroke-linejoin="round"/><path d="M11 10 L22 15 L17 17 L15 22 Z" fill-rule="evenodd" fill="#b5abfa" stroke="none" stroke-width="1.65" stroke-linecap="round" stroke-linejoin="round"/></g><text x="168" y="538" text-anchor="middle" fill="#989ba9" font-family="Arial" font-size="10">object-select</text><g transform="translate(268 492)"><path d="M5 2 L14 2 L19 7 L19 22 L5 22 Z M14 2 L14 7 L19 7" fill-rule="evenodd" fill="none" stroke="#dedede" stroke-width="1.65" stroke-linecap="round" stroke-linejoin="round"/><path d="M8 12 L16 12 M8 16 L14 16" fill-rule="evenodd" fill="none" stroke="#b5abfa" stroke-width="1.65" stroke-linecap="round" stroke-linejoin="round"/></g><text x="280" y="538" text-anchor="middle" fill="#989ba9" font-family="Arial" font-size="10">file</text><g transform="translate(380 492)"><path d="M8 5 L20 12 L8 19 Z" fill-rule="evenodd" fill="#b5abfa" stroke="none" stroke-width="1.65" stroke-linecap="round" stroke-linejoin="round"/><path d="M3 5 L3 19" fill-rule="evenodd" fill="none" stroke="#dedede" stroke-width="1.65" stroke-linecap="round" stroke-linejoin="round"/></g><text x="392" y="538" text-anchor="middle" fill="#989ba9" font-family="Arial" font-size="10">play</text><g transform="translate(492 492)"><path d="M3 6 L21 6 M8 6 L8 3 L16 3 L16 6 M5 6 L6 21 L18 21 L19 6" fill-rule="evenodd" fill="none" stroke="#dedede" stroke-width="1.65" stroke-linecap="round" stroke-linejoin="round"/><path d="M10 10 L10 17 M14 10 L14 17" fill-rule="evenodd" fill="none" stroke="#b5abfa" stroke-width="1.65" stroke-linecap="round" stroke-linejoin="round"/></g><text x="504" y="538" text-anchor="middle" fill="#989ba9" font-family="Arial" font-size="10">trash</text><g transform="translate(604 492)"><path d="M3 13 L12 4 L21 13 L12 22 Z M3 13 L21 13" fill-rule="evenodd" fill="none" stroke="#dedede" stroke-width="1.65" stroke-linecap="round" stroke-linejoin="round"/><path d="M6 2 L13 9" fill-rule="evenodd" fill="none" stroke="#b5abfa" stroke-width="1.65" stroke-linecap="round" stroke-linejoin="round"/><path d="M21 16 C18 20 20 22 21 22 C24 22 24 20 21 16 Z" fill-rule="evenodd" fill="#b5abfa" stroke="none" stroke-width="1.65" stroke-linecap="round" stroke-linejoin="round"/></g><text x="616" y="538" text-anchor="middle" fill="#989ba9" font-family="Arial" font-size="10">fill</text><g transform="translate(716 492)"><path d="M4 13 L4 21 L20 21 L20 13" fill-rule="evenodd" fill="none" stroke="#dedede" stroke-width="1.65" stroke-linecap="round" stroke-linejoin="round"/><path d="M12 15 L12 2 M7 7 L12 2 L17 7" fill-rule="evenodd" fill="none" stroke="#b5abfa" stroke-width="1.65" stroke-linecap="round" stroke-linejoin="round"/></g><text x="728" y="538" text-anchor="middle" fill="#989ba9" font-family="Arial" font-size="10">export</text><g transform="translate(828 492)"><path d="M3 3 L17 3 L21 7 L21 21 L3 21 Z M7 3 L7 9 L16 9 L16 3" fill-rule="evenodd" fill="none" stroke="#dedede" stroke-width="1.65" stroke-linecap="round" stroke-linejoin="round"/><rect x="7" y="14" width="10" height="7" fill="none" stroke="#b5abfa" stroke-width="1.65" stroke-linecap="round" stroke-linejoin="round"/></g><text x="840" y="538" text-anchor="middle" fill="#989ba9" font-family="Arial" font-size="10">save</text><g transform="translate(44 572)"><rect x="5" y="5" width="14" height="14" fill="none" stroke="#dedede" stroke-width="1.65" stroke-linecap="round" stroke-linejoin="round"/><rect x="2" y="2" width="5" height="5" fill="#b5abfa" stroke="none" stroke-width="1.65" stroke-linecap="round" stroke-linejoin="round"/><rect x="17" y="2" width="5" height="5" fill="#b5abfa" stroke="none" stroke-width="1.65" stroke-linecap="round" stroke-linejoin="round"/><rect x="2" y="17" width="5" height="5" fill="#b5abfa" stroke="none" stroke-width="1.65" stroke-linecap="round" stroke-linejoin="round"/><rect x="17" y="17" width="5" height="5" fill="#b5abfa" stroke="none" stroke-width="1.65" stroke-linecap="round" stroke-linejoin="round"/></g><text x="56" y="618" text-anchor="middle" fill="#989ba9" font-family="Arial" font-size="10">transform</text><g transform="translate(156 572)"><path d="M12 2 L14.5 9.5 L22 12 L14.5 14.5 L12 22 L9.5 14.5 L2 12 L9.5 9.5 Z" fill-rule="evenodd" fill="none" stroke="#b5abfa" stroke-width="1.65" stroke-linecap="round" stroke-linejoin="round"/></g><text x="168" y="618" text-anchor="middle" fill="#989ba9" font-family="Arial" font-size="10">spark</text><g transform="translate(268 572)"><path d="M5 5 L10 12 L5 19" fill-rule="evenodd" fill="none" stroke="#b5abfa" stroke-width="1.65" stroke-linecap="round" stroke-linejoin="round"/><path d="M12 19 L20 19" fill-rule="evenodd" fill="none" stroke="#dedede" stroke-width="1.65" stroke-linecap="round" stroke-linejoin="round"/></g><text x="280" y="618" text-anchor="middle" fill="#989ba9" font-family="Arial" font-size="10">command</text><g transform="translate(380 572)"><path d="M12 2 L15 8 L22 9 L17 14 L18 21 L12 17.5 L6 21 L7 14 L2 9 L9 8 Z" fill-rule="evenodd" fill="none" stroke="#dedede" stroke-width="1.65" stroke-linecap="round" stroke-linejoin="round"/></g><text x="392" y="618" text-anchor="middle" fill="#989ba9" font-family="Arial" font-size="10">star</text><g transform="translate(492 572)"><path d="M6 6 L18 18 M6 18 L18 6" fill-rule="evenodd" fill="none" stroke="#dedede" stroke-width="1.65" stroke-linecap="round" stroke-linejoin="round"/></g><text x="504" y="618" text-anchor="middle" fill="#989ba9" font-family="Arial" font-size="10">close</text><g transform="translate(604 572)"><path d="M12 4 L12 20 M4 12 L20 12" fill-rule="evenodd" fill="none" stroke="#dedede" stroke-width="1.65" stroke-linecap="round" stroke-linejoin="round"/></g><text x="616" y="618" text-anchor="middle" fill="#989ba9" font-family="Arial" font-size="10">plus</text><g transform="translate(716 572)"><path d="M20 3 L20 9 L14 9 M20 9 C17 -1 2 3 3 13 C4 23 17 24 21 16" fill-rule="evenodd" fill="none" stroke="#dedede" stroke-width="1.65" stroke-linecap="round" stroke-linejoin="round"/></g><text x="728" y="618" text-anchor="middle" fill="#989ba9" font-family="Arial" font-size="10">refresh</text><g transform="translate(828 572)"><path d="M4 12 L20 12 M14 6 L20 12 L14 18" fill-rule="evenodd" fill="none" stroke="#dedede" stroke-width="1.65" stroke-linecap="round" stroke-linejoin="round"/></g><text x="840" y="618" text-anchor="middle" fill="#989ba9" font-family="Arial" font-size="10">arrow</text><g transform="translate(44 652)"><path d="M6 9 L12 15 L18 9" fill-rule="evenodd" fill="none" stroke="#dedede" stroke-width="1.65" stroke-linecap="round" stroke-linejoin="round"/></g><text x="56" y="698" text-anchor="middle" fill="#989ba9" font-family="Arial" font-size="10">chevron-down</text><g transform="translate(156 652)"><path d="M6 15 L12 9 L18 15" fill-rule="evenodd" fill="none" stroke="#dedede" stroke-width="1.65" stroke-linecap="round" stroke-linejoin="round"/></g><text x="168" y="698" text-anchor="middle" fill="#989ba9" font-family="Arial" font-size="10">chevron-up</text><g transform="translate(268 652)"><path d="M12 20 L12 4 M6 10 L12 4 L18 10" fill-rule="evenodd" fill="none" stroke="#dedede" stroke-width="1.65" stroke-linecap="round" stroke-linejoin="round"/></g><text x="280" y="698" text-anchor="middle" fill="#989ba9" font-family="Arial" font-size="10">arrow-up</text><g transform="translate(380 652)"><path d="M12 4 L12 20 M6 14 L12 20 L18 14" fill-rule="evenodd" fill="none" stroke="#dedede" stroke-width="1.65" stroke-linecap="round" stroke-linejoin="round"/></g><text x="392" y="698" text-anchor="middle" fill="#989ba9" font-family="Arial" font-size="10">arrow-down</text><g transform="translate(492 652)"><path d="M7 20 L7 4 M3 8 L7 4 L11 8 M17 4 L17 20 M13 16 L17 20 L21 16" fill-rule="evenodd" fill="none" stroke="#dedede" stroke-width="1.65" stroke-linecap="round" stroke-linejoin="round"/></g><text x="504" y="698" text-anchor="middle" fill="#989ba9" font-family="Arial" font-size="10">arrow-up-down</text><g transform="translate(604 652)"><path d="M20 5 L20 13 L4 13 M9 8 L4 13 L9 18" fill-rule="evenodd" fill="none" stroke="#dedede" stroke-width="1.65" stroke-linecap="round" stroke-linejoin="round"/></g><text x="616" y="698" text-anchor="middle" fill="#989ba9" font-family="Arial" font-size="10">enter</text><g transform="translate(716 652)"><rect x="2" y="5" width="20" height="14" fill="none" stroke="#dedede" stroke-width="1.65" stroke-linecap="round" stroke-linejoin="round"/><path d="M6 9 L7 9 M11 9 L12 9 M16 9 L17 9 M6 13 L7 13 M11 13 L12 13 M16 13 L17 13 M7 16 L17 16" fill-rule="evenodd" fill="none" stroke="#dedede" stroke-width="1.65" stroke-linecap="round" stroke-linejoin="round"/></g><text x="728" y="698" text-anchor="middle" fill="#989ba9" font-family="Arial" font-size="10">keyboard</text></svg>